<?xml version="1.0" standalone="no"?>
<!DOCTYPE svg PUBLIC "-//W3C//DTD SVG 20010904//EN"
 "http://www.w3.org/TR/2001/REC-SVG-20010904/DTD/svg10.dtd">
<svg version="1.0" xmlns="http://www.w3.org/2000/svg"
 width="500.000000pt" height="500.000000pt" viewBox="0 0 500.000000 500.000000"
 preserveAspectRatio="xMidYMid meet">

<g transform="translate(0.000000,500.000000) scale(0.100000,-0.100000)"
fill="#000000" stroke="none">
<path d="M2554 3689 c-26 -13 -54 -60 -54 -91 0 -25 23 -64 50 -85 27 -22 94
-16 123 11 69 64 28 177 -62 175 -20 0 -45 -5 -57 -10z"/>
<path d="M2870 3600 c0 -16 5 -21 23 -18 12 2 22 10 22 18 0 8 -10 16 -22 18
-18 3 -23 -2 -23 -18z"/>
<path d="M2550 3408 c-68 -46 -62 -133 11 -172 41 -22 75 -17 116 18 23 20 28
32 28 70 0 86 -84 132 -155 84z"/>
<path d="M2075 3195 l0 -195 148 0 c168 0 206 10 232 60 22 43 13 92 -23 122
l-27 22 22 23 c27 26 31 87 8 120 -23 33 -75 43 -225 43 l-135 0 0 -195z m264
129 c22 -5 33 -14 37 -31 11 -44 -15 -58 -121 -61 l-95 -4 0 51 0 51 74 0 c40
0 88 -3 105 -6z m35 -167 c26 -19 18 -68 -14 -84 -14 -7 -62 -13 -112 -13
l-88 0 0 55 0 55 98 0 c65 0 104 -4 116 -13z"/>
<path d="M2874 3335 c-4 -9 -2 -21 4 -27 15 -15 44 -1 40 19 -4 23 -36 29 -44
8z"/>
<path d="M2541 3124 c-38 -32 -49 -80 -27 -122 19 -38 47 -54 91 -54 44 0 72
16 91 54 33 64 -18 148 -91 148 -21 0 -45 -9 -64 -26z"/>
<path d="M2870 3051 c0 -27 19 -36 37 -18 18 18 9 37 -18 37 -12 0 -19 -7 -19
-19z"/>
<path d="M2165 2903 c-53 -13 -83 -76 -64 -132 23 -64 114 -84 161 -33 35 37
41 64 24 107 -11 25 -26 40 -50 50 -37 16 -38 16 -71 8z"/>
<path d="M2548 2848 c17 -17 17 -364 0 -371 -7 -3 69 -7 170 -8 l182 -4 0 35
0 35 -135 -3 -135 -3 0 160 c0 118 3 161 13 164 6 3 -15 6 -47 6 -47 1 -57 -2
-48 -11z"/>
<path d="M2454 2815 c-4 -9 -2 -21 4 -27 15 -15 44 -1 40 19 -4 23 -36 29 -44
8z"/>
<path d="M2144 2621 c-44 -27 -60 -77 -40 -124 33 -81 143 -81 181 0 41 87
-59 175 -141 124z"/>
<path d="M2454 2545 c-4 -9 -2 -21 4 -27 15 -15 44 -1 40 19 -4 23 -36 29 -44
8z"/>
<path d="M2174 2275 c-4 -9 -2 -21 4 -27 15 -15 44 -1 40 19 -4 23 -36 29 -44
8z"/>
<path d="M2454 2275 c-4 -9 -2 -21 4 -27 15 -15 44 -1 40 19 -4 23 -36 29 -44
8z"/>
<path d="M2060 1965 l0 -55 34 0 c37 0 62 22 50 42 -5 7 -7 23 -6 34 2 15 -4
23 -20 28 -53 14 -58 10 -58 -49z m60 20 c0 -8 -9 -15 -20 -15 -11 0 -20 7
-20 15 0 8 9 15 20 15 11 0 20 -7 20 -15z m-6 -31 c25 -9 19 -24 -9 -24 -16 0
-25 6 -25 15 0 16 9 19 34 9z"/>
<path d="M2171 1964 c1 -33 4 -49 6 -36 5 28 39 30 46 2 3 -11 10 -20 16 -20
7 0 7 8 2 22 -5 14 -4 30 3 40 13 22 1 36 -42 44 l-32 7 1 -59z m57 19 c2 -8
-6 -13 -22 -13 -25 0 -33 10 -19 24 10 10 36 3 41 -11z"/>
<path d="M2296 2011 c-15 -23 -33 -101 -25 -101 5 0 12 7 15 15 8 20 41 19 53
-2 19 -34 21 -5 4 42 -18 48 -36 65 -47 46z m24 -41 c0 -11 -4 -20 -10 -20 -5
0 -10 9 -10 20 0 11 5 20 10 20 6 0 10 -9 10 -20z"/>
<path d="M2375 2010 c-3 -5 -1 -10 4 -10 15 0 14 -63 -1 -78 -9 -9 -7 -12 13
-12 23 0 24 3 24 55 0 45 -3 55 -17 55 -9 0 -20 -4 -23 -10z"/>
<path d="M2448 2014 c-5 -4 -8 -29 -8 -56 l0 -48 41 0 c24 0 38 4 34 10 -3 6
-17 10 -30 10 -21 0 -24 5 -27 46 -2 25 -6 42 -10 38z"/>
<path d="M2538 2014 c-5 -4 -8 -29 -8 -56 l0 -48 41 0 c24 0 38 4 34 10 -3 6
-17 10 -30 10 -21 0 -24 5 -27 46 -2 25 -6 42 -10 38z"/>
<path d="M2620 1977 c0 -47 13 -67 45 -67 12 0 26 5 33 12 15 15 16 102 2 93
-5 -3 -10 -24 -10 -46 0 -36 -2 -40 -22 -37 -19 2 -24 10 -26 46 -4 55 -22 55
-22 -1z"/>
<path d="M2737 2014 c-11 -11 -8 -104 3 -104 6 0 11 19 11 43 l1 42 11 -43
c13 -54 35 -53 53 3 l12 40 1 -42 c1 -24 6 -43 12 -43 6 0 9 21 7 53 -3 60
-25 72 -40 22 -18 -59 -21 -60 -32 -16 -11 43 -25 59 -39 45z"/>
<path d="M2870 1965 l0 -55 35 0 c19 0 35 5 35 10 0 6 -11 10 -25 10 -32 0
-34 27 -2 33 l22 4 -22 2 c-32 2 -30 31 2 31 14 0 25 5 25 10 0 6 -16 10 -35
10 l-35 0 0 -55z"/>
</g>
</svg>
